{"title":"The.Protector.2.2013.3D.1080p.Bluray.HOU.1080p.DTS.x264-CHD3D (S","uid":10908181,"size":9462113586,"categoryP":"video","categoryS":"3d","magnet":"?xt=urn:btih:66b7ab3eb0a168c7ee197619c24a830cb17f4413&amp;dn=The.Protector.2.2013.3D.1080p.Bluray.HOU.1080p.DTS.x264-CHD3D+%28S&amp;tr=udp%3A%2F%2Ftracker.openbittorrent.com%3A80&amp;tr=udp%3A%2F%2Fopen.demonii.com%3A1337&amp;tr=udp%3A%2F%2Ftracker.coppersurfer.tk%3A6969&amp;tr=udp%3A%2F%2Fexodus.desync.com%3A6969","seeders":7,"leechers":3,"uploader":"ali1997a","files":2,"time":1409251021,"description":"SilverTorrent - Clean And Verified Torrents Download\n &lt;a href=&quot;\nhttp://i.imgur.com/ky6BGho.png&quot; rel=&quot;nofollow&quot; target=&quot;_NEW&quot;&gt;\nhttp://i.imgur.com/ky6BGho.png&lt;/a&gt;\n &lt;a href=&quot;\nhttp://i.imgur.com/5SJzaiJ.jpg&quot; rel=&quot;nofollow&quot; target=&quot;_NEW&quot;&gt;\nhttp://i.imgur.com/5SJzaiJ.jpg&lt;/a&gt;\n\n\nThe.Protector.2.2013.3D.1080p.Bluray.HOU.1080p.DTS.x264-CHD3D (Silver Torrent)\n\niMDB:http://www.imdb.com/title/tt1925518/\n\nFormat                           : Matroska\nFile size                        : 8.81 GiB\nDuration                         : 1h 44mn\nOverall bit rate                 : 12.1 Mbps\nMovie name                       : The protector 2 3D\nEncoded date                     : UTC 2014-08-20 11:55:58\nWriting application              : mkvmerge v6.7.0 ('Back to the Ground'wink.gif 32bit built on Jan  8 2014 15:03:17\nWriting library                  : libebml v1.3.0 + libmatroska v1.4.1\nCover                            : Yes / Yes\n\nVideo\nID                               : 1\nFormat                           : AVC\nFormat/Info                      : Advanced Video Codec\nFormat profile                   : &lt;a class=&quot;__cf_email__&quot; href=&quot;/cdn-cgi/l/email-protection&quot; data-cfemail=&quot;bff7d6d8d7fff38b918e&quot;&gt;[email&amp;#160;protected]&lt;/a&gt;&lt;script cf-hash='f9e31' type=&quot;text/javascript&quot;&gt;\n/* &lt;![CDATA[ */!function(){try{var t=&quot;currentScript&quot;in document?document.currentScript:function(){for(var t=document.getElementsByTagName(&quot;script&quot;),e=t.length;e--;)if(t[e].getAttribute(&quot;cf-hash&quot;))return t[e]}();if(t&amp;&amp;t.previousSibling){var e,r,n,i,c=t.previousSibling,a=c.getAttribute(&quot;data-cfemail&quot;);if(a){for(e=&quot;&quot;,r=parseInt(a.substr(0,2),16),n=2;a.length-n;n+=2)i=parseInt(a.substr(n,2),16)^r,e+=String.fromCharCode(i);e=document.createTextNode(e),c.parentNode.replaceChild(e,c)}}}catch(u){}}();/* ]]&gt; */&lt;/script&gt;\nFormat settings, CABAC           : Yes\nFormat settings, ReFrames        : 4 frames\nCodec ID                         : V_MPEG4/ISO/AVC\nDuration                         : 1h 44mn\nBit rate                         : 10.3 Mbps\nWidth                            : 1 920 pixels\nHeight                           : 1 080 pixels\nDisplay aspect ratio             : 16:9\nFrame rate                       : 23.976 fps\nColor space                      : YUV\nChroma subsampling               : 4:2:0\nBit depth                        : 8 bits\nScan type                        : Progressive\nBits/(Pixel*Frame)               : 0.208\nStream size                      : 7.53 GiB (85%)\nTitle                            : 3D-T&amp;B\nWriting library                  : x264 core 142 r2389 956c8d8\nEncoding settings                : cabac=1 / ref=4 / deblock=1:-3:-3 / analyse=0x3:0x113 / me=umh / subme=10 / psy=1 / psy_rd=1.00:0.00 / mixed_ref=1 / me_range=32 / chroma_me=1 / trellis=2 / 8x8dct=1 / cqm=0 / deadzone=21,11 / fast_pskip=0 / chroma_qp_offset=-4 / threads=6 / lookahead_threads=1 / sliced_threads=0 / nr=0 / decimate=0 / interlaced=0 / bluray_compat=0 / constrained_intra=0 / bframes=6 / b_pyramid=2 / b_adapt=2 / b_bias=0 / direct=3 / weightb=1 / open_gop=0 / weightp=2 / keyint=250 / keyint_min=23 / scenecut=40 / intra_refresh=0 / rc=crf / mbtree=0 / crf=17.0 / qcomp=0.80 / qpmin=0 / qpmax=69 / qpstep=4 / frame-packing=4 / ip_ratio=1.30 / pb_ratio=1.30 / aq=2:0.90\n\nAudio\nID                               : 2\nFormat                           : DTS\nFormat/Info                      : Digital Theater Systems\nCodec ID                         : A_DTS\nDuration                         : 1h 44mn\nBit rate mode                    : Constant\nBit rate                         : 1 510 Kbps\nChannel(s)                       : 6 channels\nChannel positions                : Front: L C R, Side: L R, LFE\nSampling rate                    : 48.0 KHz\nBit depth                        : 16 bits\nCompression mode                 : Lossy\nStream size                      : 1.10 GiB (13%)\nTitle                            : Thai DTS Core of DTS-HD (Bitrate: 1536Kbps  core + MLP data.Sample Rate: 48KHz  Channels: 5.1 (DTS Master Audio))\nLanguage                         : Thai\n\nText #1\nID                               : 3\nFormat                           : VobSub\nCodec ID                         : S_VOBSUB\nCodec ID/Info                    : The same subtitle format used on DVDs\nTitle                            : English (3D PGS)\nLanguage                         : English\n\nText #2\nID                               : 4\nFormat                           : VobSub\nCodec ID                         : S_VOBSUB\nCodec ID/Info                    : The same subtitle format used on DVDs\nTitle                            : Chinese (3D PGS)\nLanguage                         : Chinese\n\nText #3\nID                               : 5\nFormat                           : VobSub\nCodec ID                         : S_VOBSUB\nCodec ID/Info                    : The same subtitle format used on DVDs\nTitle                            : Chinese (3D PGS)\nLanguage                         : Chinese\n &lt;a href=&quot;\nhttp://i.imgur.com/NmneLu7s.jpg&quot; rel=&quot;nofollow&quot; target=&quot;_NEW&quot;&gt;\nhttp://i.imgur.com/NmneLu7s.jpg&lt;/a&gt;\n &lt;a href=&quot;\nhttp://i.imgur.com/g4KR0VIs.jpg&quot; rel=&quot;nofollow&quot; target=&quot;_NEW&quot;&gt;\nhttp://i.imgur.com/g4KR0VIs.jpg&lt;/a&gt;\n &lt;a href=&quot;\nhttp://i.imgur.com/O8JFlk3s.jpg&quot; rel=&quot;nofollow&quot; target=&quot;_NEW&quot;&gt;\nhttp://i.imgur.com/O8JFlk3s.jpg&lt;/a&gt;\n","torrent":{"xt":"urn:btih:66b7ab3eb0a168c7ee197619c24a830cb17f4413","amp;dn":"The.Protector.2.2013.3D.1080p.Bluray.HOU.1080p.DTS.x264-CHD3D+%28S","amp;tr":["udp%3A%2F%2Ftracker.openbittorrent.com%3A80","udp%3A%2F%2Fopen.demonii.com%3A1337","udp%3A%2F%2Ftracker.coppersurfer.tk%3A6969","udp%3A%2F%2Fexodus.desync.com%3A6969"],"infoHash":"66b7ab3eb0a168c7ee197619c24a830cb17f4413","infoHashBuffer":{"type":"Buffer","data":[102,183,171,62,176,161,104,199,238,25,118,25,194,74,131,12,177,127,68,19]},"announce":[],"urlList":[]}}